<svg width="190" height="213" viewBox="0 0 190 213" fill="none" xmlns="http://www.w3.org/2000/svg">
<path d="M140.971 132.469C140.971 132.4 134.798 132.344 127.252 132.344H105.662C98.1164 132.344 91.9426 138.518 91.9426 146.063V162.943C91.9426 170.489 85.7689 176.663 78.2231 176.663H7.34541C-0.20031 176.663 -6.37409 170.489 -6.37409 162.943V146.793C-6.37409 139.248 -0.20031 133.074 7.34541 133.074H29.4146C36.9603 133.074 43.1341 126.9 43.1341 119.354V102.682C43.1341 95.1359 49.3079 88.9621 56.8536 88.9621H77.7622C85.3079 88.9621 91.4817 82.7883 91.4817 75.2426V58.1495C91.4817 50.6037 85.3079 44.43 77.7622 44.43H56.1725C48.6267 44.43 42.4529 50.6037 42.4529 58.1495V74.8221C42.4529 82.3678 36.2792 88.5416 28.7334 88.5416H7.34541C-0.20031 88.5416 -6.37409 82.3678 -6.37409 74.8221V58.2517C-6.37409 50.7059 -0.20031 44.5322 7.34541 44.5322H28.6861C36.2318 44.5322 42.4056 38.3584 42.4056 30.8126V13.7195C42.4056 6.17378 36.2318 0 28.6861 0H7.09502C-0.450706 0 -6.6245 6.17378 -6.6245 13.7195V30.5129C-6.6245 38.0586 -12.7983 44.2324 -20.344 44.2324H-43.4998C-51.0455 44.2324 -57.2193 50.4062 -57.2193 57.9519V74.8221C-57.2193 82.3678 -63.3931 88.5416 -70.9388 88.5416H-94.6372C-102.183 88.5416 -108.357 94.7154 -108.357 102.261V119.354C-108.357 126.9 -102.183 133.074 -94.6372 133.074H-70.9388C-63.3931 133.074 -57.2193 139.248 -57.2193 146.793V163.785C-57.2193 171.331 -51.0455 177.504 -43.4998 177.504H-23.9214C-16.3756 177.504 -10.2018 183.678 -10.2018 191.224V207.475C-10.2018 215.021 -4.02807 221.195 3.51765 221.195H29.6924C37.2382 221.195 43.4119 227.369 43.4119 234.914V266.908C43.4119 274.454 49.5857 280.628 57.1315 280.628H78.7212C86.2669 280.628 92.4407 274.454 92.4407 266.908V234.812C92.4407 227.266 92.3673 221.093 92.2774 221.093C92.1875 221.093 92.1134 214.919 92.1134 207.373V190.596C92.1134 183.05 98.2872 176.876 105.833 176.876H127.252C134.798 176.876 140.971 183.05 140.971 190.596V266.504C140.971 274.05 134.798 280.224 127.252 280.224H106.21C98.6638 280.224 92.4901 286.398 92.4901 293.943V311.036C92.4901 318.582 98.6638 324.756 106.21 324.756H127.799C135.344 324.756 141.518 318.582 141.518 311.036V295.083C141.518 287.538 147.692 281.364 155.238 281.364H176.281C183.826 281.364 190 275.19 190 267.644V146.313C190 138.767 183.826 132.594 176.281 132.594H154.691C147.145 132.594 140.971 132.537 140.971 132.469Z" fill="#FFFF85"/>
</svg>
