<svg width="222" height="150" viewBox="0 0 222 150" fill="none" xmlns="http://www.w3.org/2000/svg">
<path d="M112.774 73.9778C112.774 65.2498 105.633 58.1087 96.9048 58.1087H75.5457C66.8177 58.1087 59.6766 50.9676 59.6766 42.2396V10.3275C59.6766 1.59953 59.7099 -5.54156 59.7504 -5.54156C59.7916 -5.54156 59.825 -12.6827 59.825 -21.4107V-38.5438C59.825 -47.2718 52.6838 -54.4129 43.9558 -54.4129H23.5941C14.8661 -54.4129 7.72493 -47.2718 7.72493 -38.5438V-22.2835C7.72493 -13.5555 0.583817 -6.41437 -8.14423 -6.41437H-40.4236C-49.1516 -6.41437 -56.2928 0.726715 -56.2928 9.45474V39.7624C-56.2928 48.4904 -63.4339 55.6315 -72.1619 55.6315H-92.1309C-100.859 55.6315 -108 62.7726 -108 71.5006V87.0817C-108 95.8097 -100.859 102.951 -92.1309 102.951H-71.7699C-63.0419 102.951 -55.9008 95.8097 -55.9008 87.0817V74.3404C-55.9008 65.6124 -48.7597 58.4713 -40.0316 58.4713H41.815C50.5431 58.4713 57.6842 65.6124 57.6842 74.3404V88.8868C57.6842 97.6149 64.8253 104.756 73.5533 104.756H96.804C105.532 104.756 112.673 111.897 112.673 120.625V133.9C112.673 142.628 119.814 149.77 128.542 149.77H205.224C213.952 149.77 221.093 142.628 221.093 133.9V118.319C221.093 109.59 213.952 102.449 205.224 102.449H128.643C119.915 102.449 112.774 95.3083 112.774 86.5803V73.9778Z" fill="#EDB9D2"/>
</svg>
