<svg width="111" height="139" viewBox="0 0 111 139" fill="none" xmlns="http://www.w3.org/2000/svg">
<path d="M108.213 -47.9675C100.877 -47.9675 94.8759 -41.966 94.8759 -34.6309V-16.6804C94.8759 -9.34531 88.8744 -3.34383 81.5393 -3.34383H54.72C47.3849 -3.34383 41.3835 -3.37183 41.3835 -3.40584C41.3835 -3.44051 35.382 -3.46852 28.0468 -3.46852H13.648C6.31284 -3.46852 0.311371 2.53296 0.311371 9.8681V26.9803C0.311371 34.3155 6.31284 40.317 13.648 40.317H27.3133C34.6485 40.317 40.6499 46.3185 40.6499 53.6536V80.7816C40.6499 88.1167 46.6514 94.1182 53.9865 94.1182H79.4574C86.7926 94.1182 92.7941 100.12 92.7941 107.455V124.237C92.7941 131.572 98.7955 137.574 106.131 137.574H119.225C126.56 137.574 132.562 131.572 132.562 124.237V107.125C132.562 99.7903 126.56 93.7888 119.225 93.7888H108.517C101.182 93.7888 95.1806 87.7873 95.1806 80.4522V11.6672C95.1806 4.33208 101.182 -1.66942 108.517 -1.66942H120.742C128.077 -1.66942 134.079 -7.67088 134.079 -15.006V-34.5462C134.079 -41.8813 140.08 -47.8828 147.415 -47.8828H158.572C165.907 -47.8828 171.909 -53.8843 171.909 -61.2195V-125.663C171.909 -132.998 165.907 -139 158.572 -139H145.477C138.142 -139 132.14 -132.998 132.14 -125.663V-61.3041C132.14 -53.969 126.139 -47.9675 118.804 -47.9675H108.213Z" fill="#EDB9D2"/>
<path d="M19.1557 88C29.7351 88 38.3114 96.5763 38.3114 107.156V119.052C38.3114 129.631 29.7351 138.208 19.1557 138.208V138.208C8.5763 138.208 -3.8147e-06 129.631 -3.8147e-06 119.052V107.156C-3.8147e-06 96.5763 8.5763 88 19.1557 88V88Z" fill="#EDB9D2"/>
</svg>
