<svg id="Group_3479" data-name="Group 3479" xmlns="http://www.w3.org/2000/svg" xmlns:xlink="http://www.w3.org/1999/xlink" width="150.019" height="148.077" viewBox="0 0 150.019 148.077">
  <defs>
    <clipPath id="clip-path">
      <rect id="Rectangle_1383" data-name="Rectangle 1383" width="150.019" height="148.077" fill="none"/>
    </clipPath>
  </defs>
  <g id="Group_3479-2" data-name="Group 3479" clip-path="url(#clip-path)">
    <path id="Path_83236" data-name="Path 83236" d="M150.019,148.077H128.47a4.771,4.771,0,0,1,0-9.543h12.006v-12a4.771,4.771,0,0,1,9.543,0Z" fill="#fd40af"/>
    <path id="Path_83237" data-name="Path 83237" d="M4.772,26.32A4.771,4.771,0,0,1,0,21.549V0H21.549a4.772,4.772,0,0,1,0,9.543H9.542V21.549a4.771,4.771,0,0,1-4.77,4.771" fill="#fd40af"/>
    <path id="Path_83238" data-name="Path 83238" d="M39.309,91.8c0-.859,1.35-1.561,3-1.561H47.29a3.009,3.009,0,0,0,3-3V83.321a3.009,3.009,0,0,0-3-3H42.309a3.009,3.009,0,0,1-3-3v-4.13a3.009,3.009,0,0,1,3-3h4.886a3.009,3.009,0,0,0,3-3V53.549a3.009,3.009,0,0,0-3-3H42.309a3.009,3.009,0,0,1-3-3V33.775a3.009,3.009,0,0,1,3-3h4.916a3.009,3.009,0,0,0,3-3V23.86a3.009,3.009,0,0,0-3-3H42.309a3.009,3.009,0,0,0-3,3v3.586a3.009,3.009,0,0,1-3,3H31.393a3.009,3.009,0,0,0-3,3V48a3.009,3.009,0,0,0,3,3h4.886a3.009,3.009,0,0,1,3,3v6.348c0,.04-1.35.072-3,.072H31.393a3.009,3.009,0,0,0-3,3v27c0,1.65,0,3,0,3s0,1.35,0,3v3.851a3.009,3.009,0,0,0,3,3h4.916a3.009,3.009,0,0,0,3-3V96.358c0-1.65,0-3,0-3s0-.7,0-1.561"/>
    <path id="Path_83239" data-name="Path 83239" d="M85.714,106.8a3.009,3.009,0,0,0-3-3H77.588a3.009,3.009,0,0,1-3-3V93.465c0-1.65.007-3,.016-3s.016-1.35.016-3v-4.24a3.009,3.009,0,0,0-3-3H66.7a3.009,3.009,0,0,0-3,3v4.057a3.009,3.009,0,0,1-3,3H53.29a3.009,3.009,0,0,0-3,3v7a3.009,3.009,0,0,1-3,3H42.455a3.009,3.009,0,0,0-3,3V110.2a3.009,3.009,0,0,0,3,3h4.917a3.009,3.009,0,0,0,3-3v-3.32a3.009,3.009,0,0,1,3-3h17.8a3.009,3.009,0,0,1,3,3v3.7a3.009,3.009,0,0,0,3,3h5.522a3.009,3.009,0,0,1,3,3v3.432a3.009,3.009,0,0,0,3,3H105.41a3.009,3.009,0,0,0,3-3v-3.915a3.009,3.009,0,0,0-3-3h-16.7a3.009,3.009,0,0,1-3-3Z" fill="#fd40af"/>
    <rect id="Rectangle_1380" data-name="Rectangle 1380" width="13.277" height="9.708" rx="3" transform="translate(50.292 70.512)"/>
    <path id="Path_83240" data-name="Path 83240" d="M50.414,47.725a3.009,3.009,0,0,0,3,3h18.6a3.009,3.009,0,0,0,3-3V43.81a3.009,3.009,0,0,0-3-3H64.259a3.009,3.009,0,0,1-3-3V33.918a3.009,3.009,0,0,0-3-3H53.343a3.009,3.009,0,0,0-3,3v3.915c0,1.65.016,3,.035,3s.036,1.35.036,3Z"/>
    <path id="Path_83241" data-name="Path 83241" d="M122.215,30.445a3.009,3.009,0,0,1-3-3V23.86a3.009,3.009,0,0,0-3-3H111.3a3.009,3.009,0,0,0-3,3v3.915a3.009,3.009,0,0,0,3,3h4.916a3.009,3.009,0,0,1,3,3V58.146a3.009,3.009,0,0,0,3,3h4.916a3.009,3.009,0,0,0,3-3v-24.7a3.009,3.009,0,0,0-3-3Z"/>
    <rect id="Rectangle_1381" data-name="Rectangle 1381" width="10.916" height="9.915" rx="3" transform="translate(97.28 31.082)"/>
    <path id="Path_83242" data-name="Path 83242" d="M119.215,70.386c0-.015-1.35-.028-3-.028H111.3a3.009,3.009,0,0,0-3,3v3.868a3.009,3.009,0,0,1-3,3H89.409a3.009,3.009,0,0,1-3-3v-3.7a3.009,3.009,0,0,1,3-3h5.023a3.009,3.009,0,0,0,3-3V63.7a3.009,3.009,0,0,1,3-3H105.2a3.009,3.009,0,0,0,3-3V53.785a3.009,3.009,0,0,0-3-3H100.28a3.009,3.009,0,0,0-3,3v3.821a3.009,3.009,0,0,1-3,3H89.409a3.009,3.009,0,0,1-3-3v-3.8a3.009,3.009,0,0,1,3-3H94.27a3.009,3.009,0,0,0,3-3V43.892a3.009,3.009,0,0,0-3-3H89.353a3.009,3.009,0,0,0-3,3V47.74a3.009,3.009,0,0,1-3,3H78.089a3.009,3.009,0,0,0-3,3v3.866a3.009,3.009,0,0,1-3,3H66.7a3.009,3.009,0,0,0-3,3v3.915a3.009,3.009,0,0,0,3,3h5.386a3.009,3.009,0,0,1,3,3v3.892a3.009,3.009,0,0,0,3,3h4.468a3.009,3.009,0,0,1,3,3v3.728a3.009,3.009,0,0,0,3,3h5.937a3.009,3.009,0,0,1,3,3v7.232a3.009,3.009,0,0,0,3,3h4.916a3.009,3.009,0,0,0,3-3V93.118c0-1.65-.017-3-.037-3s-.036-1.35-.036-3V83.273a3.009,3.009,0,0,1,3-3h4.878a3.009,3.009,0,0,1,3,3v17.01a3.009,3.009,0,0,1-3,3h-4.794a3.009,3.009,0,0,0-3,3V110.2a3.009,3.009,0,0,0,3,3h4.916a3.009,3.009,0,0,0,3-3v-3.661a3.009,3.009,0,0,1,3-3h4.794a3.009,3.009,0,0,0,3-3V73.414a3.009,3.009,0,0,0-3-3h-4.916c-1.65,0-3-.013-3-.028" fill="#ffff3b"/>
    <rect id="Rectangle_1382" data-name="Rectangle 1382" width="10.916" height="9.915" rx="3" transform="translate(50.382 113.093)"/>
    <path id="Path_83243" data-name="Path 83243" d="M61.486,130.007a3.009,3.009,0,0,0,3,3h6.993a3.009,3.009,0,0,1,3,3v3.344a3.009,3.009,0,0,0,3,3h4.916a3.009,3.009,0,0,0,3-3v-3.344a3.009,3.009,0,0,1,3-3h5.9a3.009,3.009,0,0,0,3-3v-3.915a3.009,3.009,0,0,0-3-3H64.486a3.009,3.009,0,0,0-3,3Z"/>
  </g>
</svg>
