<svg xmlns="http://www.w3.org/2000/svg" width="24" height="24.949" viewBox="0 0 24 24.949">
  <path id="gavel_FILL1_wght400_GRAD0_opsz48" d="M160.984,225.435a.922.922,0,0,1-.7-.305,1,1,0,0,1-.288-.712.986.986,0,0,1,1.018-1.018H175.3a.922.922,0,0,1,.7.305,1,1,0,0,1,.288.712.986.986,0,0,1-1.018,1.018Zm5.122-8.616-4.681-4.681a2,2,0,0,1-.594-1.425,1.879,1.879,0,0,1,.56-1.425l.984-1.018,7.6,7.53-1.018,1.018a2.048,2.048,0,0,1-2.849,0Zm10.041-7.191-7.53-7.6,1.018-.984a1.879,1.879,0,0,1,1.425-.56,2,2,0,0,1,1.425.594l4.681,4.681a2.048,2.048,0,0,1,0,2.849Zm6.14,13.738L164.817,205.9l1.425-1.425,17.5,17.5a.888.888,0,0,1,.254.7,1,1,0,0,1-.288.7.984.984,0,0,1-1.425,0Z" transform="translate(-160 -200.486)"/>
</svg>
